<svg id="Capa_1" enable-background="new 0 0 512 512" height="512" viewBox="0 0 512 512" width="512" xmlns="http://www.w3.org/2000/svg"><g><path d="m511.753 334.356c-1.771 36.118-15.124 58.941-31.509 70.795h-.011c-37.016 26.763-89.496-2.498-58.726-60.951 32.678-62.064 19.098-89.099 19.098-89.099l-47.791-66.81-65.084-91.006c54.377 20.086 145.304 40.876 129.089 99.352 0 0 59.475 45.089 54.934 137.719z" fill="#4073c8"/><path d="m480.232 405.151c-37.016 26.763-89.496-2.498-58.726-60.951 32.678-62.064 19.098-89.099 19.098-89.099l-47.791-66.81c26.388 7.153 76.745 28.738 76.745 89.189.001 81.89-35.016 117.032 10.674 127.671z" fill="#3b66c1"/><path d="m141.945 171.23s42.925-52.793 79.255-135.531c0 0 70.189 22.686 133.453 85.95s85.95 133.453 85.95 133.453c-82.738 36.329-135.531 79.255-135.531 79.255l-94.552-68.577z" fill="#f1f4f6"/><g fill="#e7ecf1"><path d="m261.175 53.354c-42.055 67.362-83.492 119.317-102.031 141.597l-17.198-23.717s42.922-52.798 79.253-135.535c.001 0 16.171 5.218 39.976 17.655z"/><path d="m205.939 242.954c-1.92 0-3.843-.711-5.34-2.143-3.084-2.949-3.193-7.84-.243-10.924.123-.128 12.517-13.099 31.607-34.071 2.873-3.156 7.76-3.385 10.915-.513 3.155 2.873 3.385 7.759.513 10.915-19.232 21.126-31.744 34.22-31.868 34.35-1.517 1.587-3.549 2.386-5.584 2.386z"/><path d="m241.067 278.08c-2.035 0-4.067-.799-5.585-2.386-2.95-3.084-2.841-7.975.243-10.924.13-.124 13.223-12.636 34.35-31.868 3.156-2.871 8.043-2.642 10.915.513 2.872 3.156 2.643 8.042-.513 10.915-20.973 19.091-33.943 31.485-34.071 31.607-1.496 1.432-3.419 2.143-5.339 2.143z"/><path d="m170.185 207.202c-1.803 0-3.615-.628-5.08-1.907-3.214-2.807-3.544-7.688-.737-10.902.164-.189 16.723-19.213 39.28-50.36 2.504-3.455 7.334-4.228 10.79-1.725s4.228 7.334 1.725 10.79c-23.009 31.77-39.468 50.673-40.157 51.462-1.527 1.747-3.669 2.642-5.821 2.642z"/><path d="m276.822 313.833c-2.153 0-4.295-.894-5.823-2.643-2.807-3.214-2.478-8.094.735-10.901.789-.69 19.692-17.149 51.463-40.158 3.456-2.503 8.287-1.73 10.789 1.726 2.503 3.456 1.73 8.286-1.726 10.789-31.147 22.558-50.172 39.116-50.36 39.281-1.464 1.278-3.275 1.906-5.078 1.906z"/></g><path d="m283.641 332.427c-49.068-56.187-79.376-80.468-134.389-128.403-1.277-1.113-2.565-2.236-3.874-3.379-3.049 1.823-6.449-4.44-9.787-10.281-3.039-5.316-6.016-10.281-8.602-8.427-.103.072-.196.144-.299.216-9.529 6.83-18.461 14.247-26.795 22.283-7.283 6.985-14.114 14.454-20.49 22.376-12.321 15.309-11.497 37.396 1.7 51.942 3.472 3.822 6.954 7.623 10.446 11.404 11.95 12.939 8.952 33.667-6.191 42.629-25.971 15.35-50.696 33.687-62.172 45.163-26.373 26.383-30.926 64.573-10.168 85.331 20.748 20.759 58.948 16.205 85.321-10.168 11.487-11.487 29.824-36.201 45.174-62.172 8.952-15.144 29.69-18.142 42.619-6.202 3.781 3.503 7.593 6.985 11.415 10.446 14.546 13.207 36.634 14.031 51.932 1.71 7.922-6.367 15.391-13.197 22.386-20.491 7.768-8.056 14.958-16.668 21.593-25.847.278-.381.464-.773.556-1.154 1.41-5.459-13.888-11.125-10.375-16.976zm-226.241 108.654c-6.119 6.14-16.05 6.14-22.19 0-6.13-6.13-6.13-16.061 0-22.18 6.14-6.129 16.071-6.129 22.19 0 6.13 6.119 6.13 16.05 0 22.18z" fill="#e49542"/><path d="m294.015 349.404c-.093.381-.278.773-.556 1.154-6.634 9.179-13.825 17.791-21.593 25.847-2.297-.896-4.45-2.266-6.305-4.121l-161.544-161.544c-1.854-1.854-3.235-4.007-4.121-6.305 8.334-8.036 17.266-15.453 26.795-22.283 1.174.711 2.277 1.587 3.297 2.606l161.555 161.555c.958.959 1.792 1.999 2.472 3.091z" fill="#e27d47"/><path d="m155.151 208.126c-3.222-2.148-6.487-4.61-9.774-7.485-5.825 3.493-12.952-22.585-18.387-18.701-17.985 12.844-33.834 27.802-47.588 44.877-12.312 15.306-11.498 37.402 1.714 51.938 3.46 3.829 6.953 7.626 10.446 11.412 11.932 12.93 8.949 33.66-6.205 42.62-25.969 15.349-50.68 33.693-62.167 45.169-26.37 26.381-30.926 64.575-10.164 85.327-14.058-14.048 3.97-38.769 30.341-65.151 11.488-11.477 35.168-30.85 59.423-47.914 14.145-9.958 11.976-35.851 4.057-44.768-2.321-2.614-4.632-5.229-6.921-7.886-8.721-10.056-5.825-28.431 6.964-43.26 14.59-16.9 30.677-32.282 48.261-46.178z" fill="#e27d47"/><path d="m278.308 359.543-161.55-161.55c-7.173-7.173-7.173-18.802 0-25.975 7.173-7.173 18.802-7.173 25.975 0l161.55 161.55c7.173 7.173 7.173 18.802 0 25.975-7.173 7.172-18.803 7.172-25.975 0z" fill="#b9c1cb"/><path d="m145.38 226.622-28.631-28.631c-7.17-7.17-7.17-18.796.008-25.973 3.589-3.589 8.286-5.379 12.983-5.371 4.697-.008 9.394 1.782 12.983 5.371l28.631 28.631c-3.589-3.589-8.286-5.379-12.991-5.379-4.697-.008-9.394 1.782-12.983 5.371-7.177 7.177-7.169 18.811 0 25.981z" fill="#a0aab7"/><path d="m46.308 453.401c-5.997 0-11.995-2.283-16.561-6.849-9.132-9.132-9.132-23.99 0-33.122s23.99-9.132 33.122 0 9.131 23.99.001 33.122c-.001 0-.001 0-.001 0-4.565 4.566-10.563 6.849-16.561 6.849zm11.098-12.312h.01zm-11.097-19.066c-2.129 0-4.129.829-5.634 2.334s-2.334 3.506-2.334 5.634.829 4.129 2.334 5.634 3.506 2.334 5.634 2.334 4.129-.829 5.634-2.334c3.106-3.107 3.106-8.162-.001-11.269-1.504-1.503-3.505-2.333-5.633-2.333z" fill="#e27d47"/></g></svg>